<?xml version="1.0" encoding="utf-8"?>
<!-- Generator: Adobe Illustrator 16.0.4, SVG Export Plug-In . SVG Version: 6.00 Build 0)  -->
<!DOCTYPE svg PUBLIC "-//W3C//DTD SVG 1.1//EN" "http://www.w3.org/Graphics/SVG/1.1/DTD/svg11.dtd">
<svg version="1.1" id="Layer_1" xmlns="http://www.w3.org/2000/svg" xmlns:xlink="http://www.w3.org/1999/xlink" x="0px" y="0px"
	 width="21.083px" height="169.525px" viewBox="0 0 21.083 169.525" enable-background="new 0 0 21.083 169.525"
	 xml:space="preserve">
<g id="New_Symbol_9">
	<path fill="#FFFFFF" d="M20.445,17.043l-3.88-3.879c0.725-1.281,1.145-2.757,1.145-4.331C17.709,3.962,13.747,0,8.875,0
		C4.004,0,0.042,3.962,0.042,8.833s3.963,8.834,8.833,8.834c1.822,0,3.516-0.556,4.922-1.504l3.764,3.764
		c0.398,0.397,0.921,0.598,1.441,0.598c0.521,0,1.043-0.199,1.441-0.598C21.241,19.131,21.241,17.841,20.445,17.043z M2.76,8.833
		c0-3.372,2.743-6.115,6.115-6.115c3.374,0,6.116,2.743,6.116,6.115c0,3.373-2.742,6.116-6.116,6.116
		C5.503,14.949,2.76,12.206,2.76,8.833z"/>
</g>
<g>
	<path fill="#FFFFFF" d="M19.542,51.523h-18c-0.828,0-1.5,0.672-1.5,1.501c0,0.827,0.672,1.5,1.5,1.5h18c0.828,0,1.5-0.673,1.5-1.5
		C21.042,52.195,20.37,51.523,19.542,51.523z M1.542,48.523h18c0.828,0,1.5-0.671,1.5-1.499c0-0.829-0.672-1.501-1.5-1.501h-18
		c-0.828,0-1.5,0.672-1.5,1.501S0.713,48.523,1.542,48.523z M19.542,57.524h-18c-0.828,0-1.5,0.671-1.5,1.499
		c0,0.829,0.672,1.5,1.5,1.5h18c0.828,0,1.5-0.671,1.5-1.5C21.042,58.195,20.37,57.524,19.542,57.524z"/>
</g>
<g id="New_Symbol_9_1_">
	<path fill="#5B5B5B" d="M11.702,95.487l-2.217-2.268c0.414-0.75,0.653-1.613,0.653-2.533c0-2.848-2.263-5.164-5.048-5.164
		c-2.783,0-5.047,2.316-5.047,5.164s2.264,5.166,5.047,5.166c1.041,0,2.009-0.326,2.812-0.879l2.15,2.199
		c0.23,0.232,0.529,0.35,0.824,0.35c0.298,0,0.597-0.117,0.824-0.35C12.157,96.708,12.157,95.952,11.702,95.487z M1.596,90.686
		c0-1.971,1.568-3.576,3.495-3.576c1.928,0,3.495,1.605,3.495,3.576c0,1.973-1.567,3.576-3.495,3.576
		C3.164,94.262,1.596,92.657,1.596,90.686z"/>
</g>
<g>
	<path fill="#FFFFFF" d="M14.899,126.923H1.186c-0.631,0-1.143,0.492-1.143,1.102c0,0.605,0.512,1.1,1.143,1.1h13.713
		c0.631,0,1.143-0.494,1.143-1.1C16.042,127.415,15.53,126.923,14.899,126.923z M1.186,124.721h13.713
		c0.631,0,1.143-0.492,1.143-1.1s-0.512-1.102-1.143-1.102H1.186c-0.631,0-1.143,0.494-1.143,1.102
		C0.042,124.231,0.554,124.721,1.186,124.721z M14.899,131.323H1.186c-0.631,0-1.143,0.492-1.143,1.1s0.512,1.1,1.143,1.1h13.713
		c0.631,0,1.143-0.492,1.143-1.1S15.53,131.323,14.899,131.323z"/>
</g>
<g>
	<path fill="#D0DA00" d="M14.899,162.925H1.186c-0.631,0-1.143,0.492-1.143,1.102c0,0.605,0.512,1.1,1.143,1.1h13.713
		c0.631,0,1.143-0.494,1.143-1.1C16.042,163.417,15.53,162.925,14.899,162.925z M1.186,160.723h13.713
		c0.631,0,1.143-0.492,1.143-1.1s-0.512-1.102-1.143-1.102H1.186c-0.631,0-1.143,0.494-1.143,1.102
		C0.042,160.233,0.554,160.723,1.186,160.723z M14.899,167.325H1.186c-0.631,0-1.143,0.492-1.143,1.1s0.512,1.1,1.143,1.1h13.713
		c0.631,0,1.143-0.492,1.143-1.1S15.53,167.325,14.899,167.325z"/>
</g>
</svg>
